<svg width="16" height="16" viewBox="0 0 16 16" fill="none" xmlns="http://www.w3.org/2000/svg">
<path d="M8.98999 1C8.98999 0.446875 8.54312 0 7.98999 0C7.43687 0 6.98999 0.446875 6.98999 1V8.58438L4.69624 6.29063C4.30562 5.9 3.67124 5.9 3.28062 6.29063C2.88999 6.68125 2.88999 7.31563 3.28062 7.70625L7.28062 11.7063C7.67124 12.0969 8.30562 12.0969 8.69624 11.7063L12.6962 7.70625C13.0869 7.31563 13.0869 6.68125 12.6962 6.29063C12.3056 5.9 11.6712 5.9 11.2806 6.29063L8.98999 8.58438V1ZM1.98999 11C0.886865 11 -0.0100098 11.8969 -0.0100098 13V14C-0.0100098 15.1031 0.886865 16 1.98999 16H13.99C15.0931 16 15.99 15.1031 15.99 14V13C15.99 11.8969 15.0931 11 13.99 11H10.8181L9.40249 12.4156C8.62124 13.1969 7.35562 13.1969 6.57437 12.4156L5.16187 11H1.98999ZM13.49 12.75C13.6889 12.75 13.8797 12.829 14.0203 12.9697C14.161 13.1103 14.24 13.3011 14.24 13.5C14.24 13.6989 14.161 13.8897 14.0203 14.0303C13.8797 14.171 13.6889 14.25 13.49 14.25C13.2911 14.25 13.1003 14.171 12.9597 14.0303C12.819 13.8897 12.74 13.6989 12.74 13.5C12.74 13.3011 12.819 13.1103 12.9597 12.9697C13.1003 12.829 13.2911 12.75 13.49 12.75Z" fill="#7A00E6"/>
</svg>
