<svg width="18" height="18" viewBox="0 0 18 18" fill="none" xmlns="http://www.w3.org/2000/svg">
<path d="M8.83369 4.55744C6.44869 4.55744 4.52494 6.48119 4.52494 8.86619C4.52494 11.2512 6.44869 13.1749 8.83369 13.1749C11.2187 13.1749 13.1424 11.2512 13.1424 8.86619C13.1424 6.48119 11.2187 4.55744 8.83369 4.55744ZM8.83369 11.6674C7.29244 11.6674 6.03244 10.4112 6.03244 8.86619C6.03244 7.32119 7.28869 6.06494 8.83369 6.06494C10.3787 6.06494 11.6349 7.32119 11.6349 8.86619C11.6349 10.4112 10.3749 11.6674 8.83369 11.6674ZM14.3237 4.38119C14.3237 4.93994 13.8737 5.38619 13.3187 5.38619C12.7599 5.38619 12.3137 4.93619 12.3137 4.38119C12.3137 3.82619 12.7637 3.37619 13.3187 3.37619C13.8737 3.37619 14.3237 3.82619 14.3237 4.38119ZM17.1774 5.40119C17.1137 4.05494 16.8062 2.86244 15.8199 1.87994C14.8374 0.897441 13.6449 0.589941 12.2987 0.522441C10.9112 0.443691 6.75244 0.443691 5.36494 0.522441C4.02244 0.586191 2.82994 0.893691 1.84369 1.87619C0.857437 2.85869 0.553687 4.05119 0.486187 5.39744C0.407437 6.78494 0.407437 10.9437 0.486187 12.3312C0.549937 13.6774 0.857437 14.8699 1.84369 15.8524C2.82994 16.8349 4.01869 17.1424 5.36494 17.2099C6.75244 17.2887 10.9112 17.2887 12.2987 17.2099C13.6449 17.1462 14.8374 16.8387 15.8199 15.8524C16.8024 14.8699 17.1099 13.6774 17.1774 12.3312C17.2562 10.9437 17.2562 6.78869 17.1774 5.40119ZM15.3849 13.8199C15.0924 14.5549 14.5262 15.1212 13.7874 15.4174C12.6812 15.8562 10.0562 15.7549 8.83369 15.7549C7.61119 15.7549 4.98244 15.8524 3.87994 15.4174C3.14494 15.1249 2.57869 14.5587 2.28244 13.8199C1.84369 12.7137 1.94494 10.0887 1.94494 8.86619C1.94494 7.64369 1.84744 5.01494 2.28244 3.91244C2.57494 3.17744 3.14119 2.61119 3.87994 2.31494C4.98619 1.87619 7.61119 1.97744 8.83369 1.97744C10.0562 1.97744 12.6849 1.87994 13.7874 2.31494C14.5224 2.60744 15.0887 3.17369 15.3849 3.91244C15.8237 5.01869 15.7224 7.64369 15.7224 8.86619C15.7224 10.0887 15.8237 12.7174 15.3849 13.8199Z" fill="white"/>
</svg>
