<svg width="18" height="18" viewBox="0 0 18 18" fill="none" xmlns="http://www.w3.org/2000/svg">
<path d="M4.19043 17.0701H0.707432V5.85388H4.19043V17.0701ZM2.44706 4.32388C1.33331 4.32388 0.429932 3.40138 0.429932 2.28763C0.429932 1.75266 0.64245 1.23959 1.02073 0.86131C1.39902 0.483026 1.91208 0.270508 2.44706 0.270508C2.98203 0.270508 3.4951 0.483026 3.87338 0.86131C4.25166 1.23959 4.46418 1.75266 4.46418 2.28763C4.46418 3.40138 3.56043 4.32388 2.44706 4.32388ZM17.2262 17.0701H13.7507V11.6101C13.7507 10.3089 13.7244 8.64013 11.9398 8.64013C10.1289 8.64013 9.85143 10.0539 9.85143 11.5164V17.0701H6.37218V5.85388H9.71268V7.38388H9.76143C10.2264 6.50263 11.3623 5.57263 13.0569 5.57263C16.5819 5.57263 17.2299 7.89388 17.2299 10.9089V17.0701H17.2262Z" fill="white"/>
</svg>
