<svg width="18" height="18" viewBox="0 0 18 18" fill="none" xmlns="http://www.w3.org/2000/svg">
<path d="M0.429932 1.67021C0.429932 1.00646 0.966182 0.470215 1.62993 0.470215C10.2474 0.470215 17.2299 7.45271 17.2299 16.0702C17.2299 16.734 16.6937 17.2702 16.0299 17.2702C15.3662 17.2702 14.8299 16.734 14.8299 16.0702C14.8299 8.78022 8.91993 2.87021 1.62993 2.87021C0.966182 2.87021 0.429932 2.33396 0.429932 1.67021ZM5.22993 14.8702C5.22993 16.194 4.15368 17.2702 2.82993 17.2702C1.50618 17.2702 0.429932 16.194 0.429932 14.8702C0.429932 13.5465 1.50618 12.4702 2.82993 12.4702C4.15368 12.4702 5.22993 13.5465 5.22993 14.8702ZM1.62993 5.27022C7.59618 5.27022 12.4299 10.104 12.4299 16.0702C12.4299 16.734 11.8937 17.2702 11.2299 17.2702C10.5662 17.2702 10.0299 16.734 10.0299 16.0702C10.0299 11.4315 6.26868 7.67022 1.62993 7.67022C0.966182 7.67022 0.429932 7.13397 0.429932 6.47021C0.429932 5.80647 0.966182 5.27022 1.62993 5.27022Z" fill="white"/>
</svg>
