<svg width="80" height="23" viewBox="0 0 80 23" fill="none" xmlns="http://www.w3.org/2000/svg">
<path d="M28.4057 7.92133C26.5895 7.21037 24.6556 6.84731 22.7051 6.8511C18.3338 6.8511 15.2656 9.77377 15.2656 14.3787C15.2656 19.036 17.9277 21.9063 22.6461 21.9063C24.6249 21.9198 26.5854 21.5266 28.4057 20.751C28.6384 20.6662 28.836 20.5061 28.9671 20.2962C29.0982 20.0862 29.1553 19.8385 29.1294 19.5924V9.07992C29.1294 8.41226 28.8707 8.0948 28.4057 7.92133ZM25.3671 17.3799C25.3671 17.8152 25.1346 18.0181 24.6435 18.1621C24.0047 18.3438 23.3429 18.432 22.6788 18.424C20.8255 18.424 19.077 17.3243 19.077 14.3722C19.077 11.42 20.8124 10.3236 22.6788 10.3236C23.3428 10.3145 24.0045 10.4016 24.6435 10.5822C25.1346 10.7262 25.3671 10.9291 25.3671 11.3644V17.3799Z" fill="white"/>
<path d="M4.03447 11.6829C4.03447 10.7992 4.93163 10.2363 6.46732 10.2363C7.94407 10.2363 9.36187 10.7272 10.8386 11.5454C10.9694 11.6226 11.119 11.6623 11.2709 11.66C11.4062 11.6582 11.5386 11.6198 11.6539 11.549C11.7692 11.4781 11.8631 11.3773 11.9257 11.2574L12.8229 9.34603C12.8961 9.19256 12.9352 9.02509 12.9375 8.8551C12.9378 8.73613 12.9056 8.61933 12.8445 8.51726C12.7833 8.4152 12.6955 8.33171 12.5904 8.27579C10.76 7.25395 8.69484 6.72607 6.5983 6.7441C2.72143 6.7441 0.23291 8.82565 0.23291 11.9513C0.23291 18.0846 9.55181 15.7085 9.55181 19.9632C9.55488 20.3272 9.49619 20.6891 9.37825 21.0335C9.36067 21.0897 9.35076 21.148 9.34879 21.2069C9.34601 21.2635 9.35561 21.32 9.37693 21.3725C9.39826 21.425 9.4308 21.4723 9.47226 21.5109C9.51373 21.5495 9.56315 21.5787 9.61704 21.5963C9.67093 21.6138 9.72798 21.6195 9.78427 21.6127H12.3874C12.8229 21.6127 12.9964 21.4687 13.1405 21.0335C13.3015 20.5031 13.38 19.9512 13.373 19.397C13.3567 12.812 4.03447 14.3928 4.03447 11.6829Z" fill="white"/>
<path d="M39.2007 6.85107C37.2161 6.86472 35.2483 7.21669 33.3821 7.89184C33.1495 7.97662 32.9519 8.13672 32.8208 8.34665C32.6897 8.55659 32.6325 8.8043 32.6585 9.05043V21.0259C32.6537 21.1032 32.6654 21.1806 32.6928 21.2531C32.7203 21.3255 32.7628 21.3913 32.8176 21.4461C32.8724 21.5009 32.9382 21.5434 33.0107 21.5708C33.0832 21.5983 33.1607 21.61 33.238 21.6052H35.8575C35.9349 21.61 36.0124 21.5983 36.0849 21.5708C36.1574 21.5434 36.2232 21.5009 36.278 21.4461C36.3328 21.3913 36.3753 21.3255 36.4028 21.2531C36.4302 21.1806 36.4419 21.1032 36.4371 21.0259V11.3055C36.4371 10.8734 36.6663 10.6705 37.1313 10.5527C37.832 10.3831 38.552 10.3061 39.2727 10.3236C40.8346 10.3236 42.0789 11.0469 42.0789 12.7815V21.0259C42.0741 21.1032 42.0858 21.1806 42.1132 21.2531C42.1407 21.3255 42.1832 21.3913 42.238 21.4461C42.2928 21.5009 42.3586 21.5434 42.4311 21.5708C42.5036 21.5983 42.5811 21.61 42.6584 21.6052H45.278C45.355 21.6095 45.4322 21.5974 45.5043 21.5698C45.5764 21.5421 45.6418 21.4995 45.6962 21.4448C45.7507 21.3901 45.7929 21.3245 45.8201 21.2523C45.8474 21.1801 45.859 21.1029 45.8543 21.0259V12.2906C45.8281 8.75915 43.6572 6.85107 39.2007 6.85107Z" fill="white"/>
<path d="M55.7858 6.85107C51.444 6.85107 48.6084 10.0028 48.6084 14.3787C48.6084 18.7545 51.444 21.9063 55.9888 21.9063C60.3307 21.9063 63.1663 18.7545 63.1663 14.3787C63.1663 10.0028 60.3307 6.85107 55.7858 6.85107ZM55.9888 18.4239C53.8474 18.4239 52.4296 17.033 52.4296 14.3721C52.4296 11.7113 53.8474 10.3236 55.7858 10.3236C57.9273 10.3236 59.3451 11.7113 59.3451 14.3721C59.3451 17.033 57.9273 18.4239 55.9888 18.4239Z" fill="white"/>
<path d="M79.2862 7.13818H76.6831C76.363 7.13818 76.1035 7.39754 76.1035 7.71748V21.025C76.1035 21.3449 76.363 21.6043 76.6831 21.6043H79.2862C79.6063 21.6043 79.8658 21.3449 79.8658 21.025V7.71748C79.8658 7.39754 79.6063 7.13818 79.2862 7.13818Z" fill="white"/>
<path d="M73.7294 1.55629C73.1329 1.41563 72.5216 1.3475 71.9088 1.35338C68.307 1.35338 65.9756 3.26473 65.9756 7.43109V21.0266C65.9709 21.1036 65.9825 21.1808 66.0098 21.253C66.037 21.3252 66.0792 21.3908 66.1337 21.4455C66.1881 21.5003 66.2535 21.5429 66.3256 21.5705C66.3977 21.5981 66.4748 21.6102 66.5519 21.6059H69.1289C69.2062 21.6107 69.2837 21.599 69.3562 21.5715C69.4287 21.5441 69.4945 21.5016 69.5493 21.4468C69.6041 21.3921 69.6467 21.3263 69.6741 21.2538C69.7015 21.1814 69.7132 21.1039 69.7084 21.0266V10.3243H73.3823C73.4602 10.3313 73.5387 10.3212 73.6122 10.2946C73.6857 10.2679 73.7524 10.2255 73.8077 10.1702C73.863 10.1149 73.9054 10.0482 73.9321 9.97473C73.9587 9.90125 73.9689 9.82284 73.9619 9.74501V7.74855C73.9718 7.66877 73.9639 7.58779 73.9387 7.51145C73.9135 7.43511 73.8717 7.36531 73.8162 7.30708C73.7608 7.24885 73.6931 7.20364 73.6181 7.17472C73.543 7.14579 73.4625 7.13386 73.3823 7.1398H69.7084V6.81251C69.7084 5.2219 70.4026 4.41022 72.0005 4.41022C72.5801 4.41022 73.2022 4.5575 73.4183 4.5575C73.7654 4.5575 73.9095 4.35459 73.9684 4.00766L74.2598 2.50215C74.2888 2.37845 74.3074 2.25255 74.3155 2.12577C74.309 1.81484 74.1354 1.64466 73.7294 1.55629Z" fill="white"/>
<path d="M1.96463 17.9058C0.779304 17.9058 0 18.6553 0 19.8989C0 21.1426 0.782588 21.8954 2.05632 21.8954C3.24165 21.8954 4.02096 21.1164 4.02096 19.8989C4.02096 18.6814 3.23837 17.9058 1.96463 17.9058Z" fill="white"/>
<path d="M77.9436 1.35889C76.755 1.35889 75.979 2.11165 75.979 3.35534C75.979 4.59903 76.7616 5.35178 78.0353 5.35178C79.2207 5.35178 80 4.56958 80 3.35534C80 2.14111 79.2141 1.35889 77.9436 1.35889Z" fill="white"/>
</svg>
