<svg width="18" height="20" viewBox="0 0 18 20" fill="none" xmlns="http://www.w3.org/2000/svg">
<path d="M17.2299 8.14164C15.579 8.14559 13.9685 7.63072 12.6261 6.66977V13.3718C12.6256 14.6131 12.2462 15.8246 11.5386 16.8444C10.831 17.8643 9.82888 18.6438 8.66629 19.0787C7.5037 19.5137 6.23603 19.5833 5.0328 19.2783C3.82956 18.9733 2.74811 18.3083 1.93304 17.3721C1.11798 16.4359 0.608156 15.2732 0.471742 14.0394C0.335327 12.8057 0.578825 11.5597 1.16968 10.468C1.76053 9.37637 2.67057 8.49113 3.77811 7.93066C4.88566 7.37019 6.13792 7.1612 7.36744 7.33164V10.7025C6.80481 10.5255 6.20064 10.5309 5.64122 10.7178C5.0818 10.9046 4.59573 11.2635 4.25243 11.7431C3.90912 12.2227 3.72614 12.7985 3.72962 13.3883C3.73309 13.9781 3.92284 14.5517 4.27177 15.0273C4.6207 15.5028 5.11096 15.8559 5.67255 16.0362C6.23413 16.2164 6.83832 16.2147 7.39883 16.0311C7.95934 15.8475 8.44751 15.4915 8.79362 15.0139C9.13973 14.5363 9.32608 13.9616 9.32607 13.3718V0.27002H12.6261C12.6238 0.548697 12.6471 0.826995 12.6958 1.10139C12.8105 1.71395 13.0489 2.29667 13.3965 2.81392C13.7441 3.33117 14.1936 3.77206 14.7174 4.10964C15.4627 4.60243 16.3365 4.86508 17.2299 4.86489V8.14164Z" fill="white"/>
</svg>
