<svg width="19" height="14" viewBox="0 0 19 14" fill="none" xmlns="http://www.w3.org/2000/svg">
<path d="M18.5519 2.47298C18.3425 1.68465 17.7256 1.06378 16.9424 0.853082C15.5227 0.470215 9.83002 0.470215 9.83002 0.470215C9.83002 0.470215 4.13735 0.470215 2.71765 0.853082C1.93442 1.06381 1.31755 1.68465 1.10818 2.47298C0.727783 3.90188 0.727783 6.88315 0.727783 6.88315C0.727783 6.88315 0.727783 9.86442 1.10818 11.2933C1.31755 12.0816 1.93442 12.6766 2.71765 12.8873C4.13735 13.2702 9.83002 13.2702 9.83002 13.2702C9.83002 13.2702 15.5227 13.2702 16.9424 12.8873C17.7256 12.6766 18.3425 12.0816 18.5519 11.2933C18.9323 9.86442 18.9323 6.88315 18.9323 6.88315C18.9323 6.88315 18.9323 3.90188 18.5519 2.47298ZM7.96818 9.58992V4.17638L12.7262 6.88322L7.96818 9.58992Z" fill="white"/>
</svg>
